<?xml version="1.0" encoding="UTF-8" standalone="no"?>
<!DOCTYPE svg PUBLIC "-//W3C//DTD SVG 1.1//EN" "http://www.w3.org/Graphics/SVG/1.1/DTD/svg11.dtd">
<svg xmlns="http://www.w3.org/2000/svg" version="1.1" viewBox="0.00 0.00 550.00 454.00">
<g stroke-width="2.00" fill="none" stroke-linecap="butt">
<path stroke="#bcb2ad" vector-effect="non-scaling-stroke" d="
  M 474.68 139.24
  C 472.69 141.59 472.30 144.44 469.52 146.83
  Q 466.89 149.10 456.00 154.58"
/>
<path stroke="#b3adbc" vector-effect="non-scaling-stroke" d="
  M 456.00 154.58
  Q 449.77 156.91 443.52 159.07
  C 435.00 162.02 426.13 163.79 417.24 165.74"
/>
<path stroke="#a8a9c6" vector-effect="non-scaling-stroke" d="
  M 417.24 165.74
  Q 404.32 168.78 390.89 170.39"
/>
<path stroke="#99a5ce" vector-effect="non-scaling-stroke" d="
  M 390.89 170.39
  C 382.40 171.71 374.01 173.02 365.32 173.82
  Q 350.56 175.18 336.20 176.46"
/>
<path stroke="#8da4d2" vector-effect="non-scaling-stroke" d="
  M 336.20 176.46
  Q 308.29 178.39 280.96 178.62"
/>
<path stroke="#79a4d2" vector-effect="non-scaling-stroke" d="
  M 280.96 178.62
  Q 263.28 178.59 245.60 178.46
  C 239.32 178.42 232.68 177.98 226.19 177.75"
/>
<path stroke="#6da5cf" vector-effect="non-scaling-stroke" d="
  M 226.19 177.75
  Q 218.14 177.32 210.07 176.88
  C 199.20 176.29 188.04 174.95 176.99 173.94"
/>
<path stroke="#60a7ca" vector-effect="non-scaling-stroke" d="
  M 176.99 173.94
  L 144.29 168.95"
/>
<path stroke="#55aac2" vector-effect="non-scaling-stroke" d="
  M 144.29 168.95
  Q 127.01 165.63 110.75 160.17"
/>
<path stroke="#4ab0b5" vector-effect="non-scaling-stroke" d="
  M 110.75 160.17
  C 103.27 156.38 95.81 154.10 91.06 146.63"
/>
<path stroke="#1d64c8" vector-effect="non-scaling-stroke" d="
  M 110.75 160.17
  Q 110.32 162.33 110.78 164.04
  Q 110.91 164.52 110.82 165.01
  C 109.78 170.71 110.04 176.76 110.70 182.14
  C 111.58 189.29 111.81 197.44 112.40 203.61
  Q 113.46 214.80 114.46 225.99
  Q 114.55 226.95 114.86 230.75
  Q 115.67 240.49 116.73 250.23
  Q 117.04 253.11 117.09 254.00
  Q 117.73 264.63 118.55 275.23
  Q 119.17 283.25 119.55 291.27
  Q 119.56 291.58 119.86 291.65
  Q 120.12 291.72 120.15 292.00
  Q 120.65 297.76 121.37 303.50
  Q 122.15 309.66 122.48 330.25
  Q 122.54 334.34 123.87 340.00
  Q 124.48 342.61 122.76 350.50"
/>
<path stroke="#ed69ba" vector-effect="non-scaling-stroke" d="
  M 455.77 340.75
  Q 455.65 340.25 454.84 340.46
  Q 454.19 340.62 454.13 339.96
  Q 454.09 339.55 454.27 339.20
  Q 454.52 338.73 454.38 338.22
  Q 453.56 335.17 454.01 332.11
  C 454.44 329.15 454.37 327.14 454.38 324.49
  Q 454.38 324.37 454.26 324.37
  Q 454.13 324.37 453.99 324.37
  Q 453.66 324.37 453.66 324.04
  C 453.71 317.59 454.19 311.80 454.30 304.75
  Q 454.64 282.32 454.70 275.25
  C 454.72 272.12 455.06 268.82 455.08 265.92
  Q 455.19 242.61 456.53 219.34
  C 456.98 211.59 456.78 203.03 457.22 194.85
  Q 457.22 194.74 457.13 194.69
  L 456.87 194.55
  Q 456.63 194.41 456.61 194.13
  C 455.85 183.86 456.55 173.53 457.42 160.51
  Q 457.66 156.90 456.00 154.58"
/>
<path stroke="#d95fd3" vector-effect="non-scaling-stroke" d="
  M 418.56 361.16
  Q 416.06 359.50 416.59 356.96
  Q 416.98 355.11 416.97 354.48
  C 416.95 352.31 417.08 350.20 416.93 348.11
  Q 416.44 341.69 416.55 335.25
  C 416.73 325.35 416.40 314.76 416.71 305.59
  Q 417.11 293.91 417.62 285.25
  Q 417.67 284.50 417.56 283.97
  Q 417.47 283.50 417.55 283.02
  Q 417.78 281.54 417.47 280.07
  Q 417.37 279.57 417.47 279.07
  C 417.88 276.92 417.24 274.62 417.34 272.41
  Q 417.52 268.20 417.52 268.08
  Q 417.49 254.87 417.81 241.67
  C 418.08 231.00 417.72 218.70 418.32 209.00
  Q 418.75 201.97 418.74 196.50
  Q 418.73 189.41 418.97 184.02
  Q 419.37 175.33 418.71 166.64
  Q 418.67 166.10 418.15 165.97
  L 417.24 165.74"
/>
<path stroke="#325bdc" vector-effect="non-scaling-stroke" d="
  M 144.29 168.95
  Q 144.19 169.98 143.36 170.18
  Q 142.90 170.29 142.65 170.69
  Q 141.97 171.78 142.68 172.92
  Q 142.92 173.30 142.88 173.75
  C 142.54 178.71 143.23 184.74 143.38 188.37
  Q 143.71 196.56 144.12 204.75
  Q 144.21 206.53 144.57 208.20
  Q 144.60 208.35 144.53 208.49
  Q 144.47 208.62 144.42 208.76
  Q 144.27 209.25 144.28 209.37
  Q 144.84 219.33 146.12 229.23
  Q 146.20 229.86 146.42 231.49
  Q 147.01 235.93 147.62 240.37
  C 147.98 243.04 147.79 246.07 148.18 248.96
  C 148.73 253.10 149.47 257.64 148.86 261.43
  Q 148.73 262.19 148.90 263.11
  Q 149.43 266.08 148.76 269.01
  C 148.39 270.63 149.36 272.40 149.38 274.12
  C 149.47 280.64 150.45 287.22 150.71 293.52
  Q 150.88 297.51 151.13 301.50
  Q 151.23 303.14 151.44 304.20
  Q 151.83 306.14 151.83 306.83
  Q 151.91 318.74 152.94 323.00
  C 153.36 324.73 153.29 325.71 153.47 327.23
  Q 154.08 332.49 154.50 337.75
  C 154.59 338.87 154.25 340.10 154.51 341.35
  C 155.16 344.53 155.36 347.57 155.56 350.79
  C 155.67 352.56 156.20 354.57 156.20 356.58
  Q 156.20 358.48 156.57 360.88
  Q 157.01 363.75 156.22 366.89"
/>
<path stroke="#4a56ea" vector-effect="non-scaling-stroke" d="
  M 176.99 173.94
  Q 176.80 173.98 176.65 174.04
  Q 176.38 174.14 176.33 174.42
  Q 176.20 175.14 175.68 175.40
  A 0.67 0.66 77.3 0 0 175.31 176.00
  Q 175.27 184.85 175.74 193.36
  C 176.18 201.03 176.34 207.76 176.74 214.95
  C 176.86 217.13 177.46 220.27 177.36 223.04
  Q 177.34 223.49 177.55 223.88
  Q 177.80 224.35 177.86 225.00
  Q 179.47 243.79 179.88 260.15
  C 179.95 263.05 180.35 266.39 180.38 269.56
  C 180.41 272.07 181.25 274.56 181.15 277.25
  Q 181.06 279.78 181.42 281.97
  Q 181.76 284.07 181.69 286.21
  C 181.60 288.68 182.27 290.92 182.27 293.34
  Q 182.27 296.23 182.42 297.67
  Q 182.73 300.48 182.62 302.00
  C 182.51 303.51 183.13 304.52 183.18 305.67
  Q 184.65 336.35 186.30 367.02
  Q 186.33 367.49 186.63 367.85
  Q 187.03 368.33 186.85 368.94
  Q 186.74 369.35 186.84 369.77
  Q 187.14 371.03 186.67 372.31
  Q 186.62 372.45 186.75 372.52
  L 187.06 372.69
  Q 187.49 372.92 187.13 373.24
  L 185.41 374.77"
/>
<path stroke="#6453f2" vector-effect="non-scaling-stroke" d="
  M 226.19 177.75
  Q 226.35 178.86 225.22 178.91
  A 0.75 0.74 3.9 0 0 224.52 179.51
  Q 224.39 180.23 224.73 180.97
  Q 224.93 181.41 224.83 181.88
  Q 224.24 184.50 224.34 187.13
  C 224.55 192.23 224.41 196.58 224.73 201.31
  C 225.22 208.42 225.19 215.23 226.04 222.18
  C 226.20 223.47 225.98 225.08 226.23 226.45
  Q 226.64 228.68 226.64 229.59
  C 226.58 238.43 226.56 247.36 227.71 256.15
  C 228.65 263.35 228.81 271.44 228.89 278.08
  C 228.91 279.90 229.30 281.82 229.35 283.75
  C 229.62 293.90 230.53 304.09 230.69 314.16
  Q 230.78 319.59 230.88 325.01
  C 231.02 332.61 232.34 340.31 232.40 347.91
  Q 232.45 355.99 232.54 358.09
  Q 232.85 365.91 232.93 373.75
  Q 232.96 376.62 234.17 380.44
  Q 234.32 380.93 233.81 380.88
  Q 232.82 380.80 233.04 381.43"
/>
<path stroke="#a453f1" vector-effect="non-scaling-stroke" d="
  M 339.26 379.66
  L 337.25 334.98
  Q 336.92 327.55 336.85 320.12
  Q 336.78 312.77 336.71 305.40
  Q 336.65 299.68 336.06 291.63
  Q 335.34 281.95 335.22 272.25
  Q 335.21 271.34 334.74 270.36
  Q 334.52 269.90 334.63 269.40
  Q 335.44 265.81 335.04 262.14
  C 334.90 260.83 335.43 259.89 335.31 258.55
  Q 335.13 256.50 335.13 256.45
  Q 335.13 235.59 335.16 214.74
  C 335.16 211.93 335.20 208.50 335.26 206.16
  Q 335.68 191.43 336.20 176.46"
/>
<path stroke="#8452f5" vector-effect="non-scaling-stroke" d="
  M 291.04 383.37
  L 290.89 380.80
  Q 290.87 380.41 290.48 380.39
  Q 289.97 380.37 289.91 379.75
  Q 289.65 377.01 289.60 374.26
  Q 289.57 372.46 289.30 368.78
  C 288.83 362.35 288.83 354.76 288.82 350.12
  Q 288.81 341.94 288.71 333.75
  C 288.66 330.32 288.95 327.43 288.63 324.76
  C 288.21 321.31 288.55 317.67 288.23 314.14
  C 288.04 312.03 288.41 309.80 288.17 307.55
  Q 287.97 305.62 287.97 304.42
  C 287.98 300.87 287.69 297.30 287.92 293.78
  Q 287.96 293.30 288.30 292.98
  Q 288.52 292.77 288.64 292.50
  Q 288.76 292.24 288.50 292.11
  Q 288.37 292.05 288.27 291.97
  Q 287.54 291.39 287.54 291.25
  L 286.85 273.25
  A 0.55 0.55 0.0 0 1 287.90 273.02
  L 288.08 273.45
  Q 288.18 273.71 288.03 273.94
  Q 287.78 274.30 287.91 274.56
  Q 288.29 275.36 288.29 274.38
  C 288.27 268.10 287.90 261.79 287.93 255.54
  Q 287.98 246.52 287.45 237.51
  Q 287.45 237.45 287.54 236.52
  Q 287.57 236.21 287.55 235.75
  Q 287.00 221.75 286.45 207.74
  C 286.36 205.67 286.79 202.48 286.19 199.74
  A 1.71 1.71 0.0 0 1 286.26 198.80
  Q 286.55 198.02 286.41 197.49
  Q 285.76 195.15 286.13 191.51
  Q 286.50 187.81 285.59 180.11
  A 0.39 0.38 9.1 0 0 285.35 179.79
  Q 285.07 179.69 285.01 179.36
  Q 284.99 179.25 285.09 179.19
  Q 285.13 179.16 285.18 179.15
  Q 285.46 179.06 285.21 179.03
  L 280.96 178.62"
/>
<path stroke="#bf58e5" vector-effect="non-scaling-stroke" d="
  M 392.70 369.50
  Q 392.70 368.89 392.38 368.61
  A 0.18 0.16 42.6 0 0 392.14 368.61
  Q 392.04 368.71 391.94 368.81
  A 0.35 0.34 55.5 0 1 391.38 368.70
  C 389.65 364.78 390.65 360.87 390.48 357.65
  Q 390.21 352.83 390.28 347.99
  Q 390.37 342.37 390.65 336.75
  C 390.70 335.74 390.23 334.62 390.36 333.75
  C 390.87 330.31 390.40 327.07 390.55 323.61
  C 390.65 321.30 390.22 319.06 390.34 316.68
  Q 390.39 315.66 390.37 314.00
  Q 390.28 304.88 390.23 295.75
  Q 390.22 294.23 390.58 292.73
  Q 390.74 292.06 390.37 291.52
  A 1.31 1.27 -63.2 0 1 390.14 290.78
  C 390.07 271.10 390.52 251.40 390.15 231.74
  Q 390.05 226.49 390.03 221.24
  Q 390.02 217.52 390.50 210.75
  Q 390.96 204.28 390.84 197.79
  Q 390.80 195.92 390.98 192.70
  Q 391.13 190.15 390.97 187.59
  C 390.83 185.10 391.28 182.65 391.12 180.25
  Q 390.75 174.64 390.89 170.39"
/>
</g>
<path fill="#82f6af" d="
  M 474.68 139.24
  C 472.69 141.59 472.30 144.44 469.52 146.83
  Q 466.89 149.10 456.00 154.58
  Q 449.77 156.91 443.52 159.07
  C 435.00 162.02 426.13 163.79 417.24 165.74
  Q 404.32 168.78 390.89 170.39
  C 382.40 171.71 374.01 173.02 365.32 173.82
  Q 350.56 175.18 336.20 176.46
  Q 308.29 178.39 280.96 178.62
  Q 263.28 178.59 245.60 178.46
  C 239.32 178.42 232.68 177.98 226.19 177.75
  Q 218.14 177.32 210.07 176.88
  C 199.20 176.29 188.04 174.95 176.99 173.94
  L 144.29 168.95
  Q 127.01 165.63 110.75 160.17
  C 103.27 156.38 95.81 154.10 91.06 146.63
  C 90.54 144.18 91.23 139.38 92.94 137.18
  Q 94.79 134.79 100.83 131.09
  C 108.79 126.20 120.07 122.75 129.89 119.87
  Q 135.24 118.29 142.47 116.79
  C 149.72 115.28 157.11 113.58 164.23 112.45
  C 226.45 102.57 290.21 100.53 353.33 104.43
  Q 356.07 104.60 363.15 105.24
  C 367.53 105.64 372.20 105.84 376.28 106.27
  C 400.73 108.85 424.48 112.21 448.14 119.15
  C 455.62 121.35 466.23 125.91 471.33 130.94
  Q 473.83 133.41 474.68 139.24
  Z"
/>
<path fill="#f66eab" d="
  M 474.68 139.24
  Q 474.40 150.81 474.08 162.25
  C 473.99 165.29 473.51 168.40 473.47 171.26
  Q 473.21 189.74 472.24 218.00
  C 471.91 227.83 471.68 237.68 471.23 247.50
  C 470.16 270.71 470.27 293.64 468.96 317.18
  Q 468.78 320.30 467.70 323.12
  Q 466.59 326.00 465.42 328.85
  Q 464.05 332.18 461.80 334.67
  Q 458.92 337.86 455.77 340.75
  Q 455.65 340.25 454.84 340.46
  Q 454.19 340.62 454.13 339.96
  Q 454.09 339.55 454.27 339.20
  Q 454.52 338.73 454.38 338.22
  Q 453.56 335.17 454.01 332.11
  C 454.44 329.15 454.37 327.14 454.38 324.49
  Q 454.38 324.37 454.26 324.37
  Q 454.13 324.37 453.99 324.37
  Q 453.66 324.37 453.66 324.04
  C 453.71 317.59 454.19 311.80 454.30 304.75
  Q 454.64 282.32 454.70 275.25
  C 454.72 272.12 455.06 268.82 455.08 265.92
  Q 455.19 242.61 456.53 219.34
  C 456.98 211.59 456.78 203.03 457.22 194.85
  Q 457.22 194.74 457.13 194.69
  L 456.87 194.55
  Q 456.63 194.41 456.61 194.13
  C 455.85 183.86 456.55 173.53 457.42 160.51
  Q 457.66 156.90 456.00 154.58
  Q 466.89 149.10 469.52 146.83
  C 472.30 144.44 472.69 141.59 474.68 139.24
  Z"
/>
<path fill="#1269bb" d="
  M 91.06 146.63
  C 95.81 154.10 103.27 156.38 110.75 160.17
  Q 110.32 162.33 110.78 164.04
  Q 110.91 164.52 110.82 165.01
  C 109.78 170.71 110.04 176.76 110.70 182.14
  C 111.58 189.29 111.81 197.44 112.40 203.61
  Q 113.46 214.80 114.46 225.99
  Q 114.55 226.95 114.86 230.75
  Q 115.67 240.49 116.73 250.23
  Q 117.04 253.11 117.09 254.00
  Q 117.73 264.63 118.55 275.23
  Q 119.17 283.25 119.55 291.27
  Q 119.56 291.58 119.86 291.65
  Q 120.12 291.72 120.15 292.00
  Q 120.65 297.76 121.37 303.50
  Q 122.15 309.66 122.48 330.25
  Q 122.54 334.34 123.87 340.00
  Q 124.48 342.61 122.76 350.50
  C 119.29 347.51 115.40 345.03 112.97 341.16
  Q 110.50 337.24 108.42 333.08
  C 107.27 330.79 107.20 328.83 107.00 326.37
  C 106.09 315.04 105.08 303.56 103.81 292.27
  Q 103.13 286.32 102.73 280.35
  C 102.02 269.74 100.71 259.64 99.84 249.27
  Q 97.52 221.62 94.96 194.00
  Q 94.93 193.65 94.24 183.98
  C 93.92 179.51 93.17 174.71 92.86 170.66
  Q 91.95 158.79 91.06 146.63
  Z"
/>
<path fill="#e363c9" d="
  M 456.00 154.58
  Q 457.66 156.90 457.42 160.51
  C 456.55 173.53 455.85 183.86 456.61 194.13
  Q 456.63 194.41 456.87 194.55
  L 457.13 194.69
  Q 457.22 194.74 457.22 194.85
  C 456.78 203.03 456.98 211.59 456.53 219.34
  Q 455.19 242.61 455.08 265.92
  C 455.06 268.82 454.72 272.12 454.70 275.25
  Q 454.64 282.32 454.30 304.75
  C 454.19 311.80 453.71 317.59 453.66 324.04
  Q 453.66 324.37 453.99 324.37
  Q 454.13 324.37 454.26 324.37
  Q 454.38 324.37 454.38 324.49
  C 454.37 327.14 454.44 329.15 454.01 332.11
  Q 453.56 335.17 454.38 338.22
  Q 454.52 338.73 454.27 339.20
  Q 454.09 339.55 454.13 339.96
  Q 454.19 340.62 454.84 340.46
  Q 455.65 340.25 455.77 340.75
  Q 453.35 343.33 451.71 344.38
  Q 445.38 348.41 435.21 354.11
  C 429.93 357.07 424.22 359.01 418.56 361.16
  Q 416.06 359.50 416.59 356.96
  Q 416.98 355.11 416.97 354.48
  C 416.95 352.31 417.08 350.20 416.93 348.11
  Q 416.44 341.69 416.55 335.25
  C 416.73 325.35 416.40 314.76 416.71 305.59
  Q 417.11 293.91 417.62 285.25
  Q 417.67 284.50 417.56 283.97
  Q 417.47 283.50 417.55 283.02
  Q 417.78 281.54 417.47 280.07
  Q 417.37 279.57 417.47 279.07
  C 417.88 276.92 417.24 274.62 417.34 272.41
  Q 417.52 268.20 417.52 268.08
  Q 417.49 254.87 417.81 241.67
  C 418.08 231.00 417.72 218.70 418.32 209.00
  Q 418.75 201.97 418.74 196.50
  Q 418.73 189.41 418.97 184.02
  Q 419.37 175.33 418.71 166.64
  Q 418.67 166.10 418.15 165.97
  L 417.24 165.74
  C 426.13 163.79 435.00 162.02 443.52 159.07
  Q 449.77 156.91 456.00 154.58
  Z"
/>
<path fill="#275ed4" d="
  M 110.75 160.17
  Q 127.01 165.63 144.29 168.95
  Q 144.19 169.98 143.36 170.18
  Q 142.90 170.29 142.65 170.69
  Q 141.97 171.78 142.68 172.92
  Q 142.92 173.30 142.88 173.75
  C 142.54 178.71 143.23 184.74 143.38 188.37
  Q 143.71 196.56 144.12 204.75
  Q 144.21 206.53 144.57 208.20
  Q 144.60 208.35 144.53 208.49
  Q 144.47 208.62 144.42 208.76
  Q 144.27 209.25 144.28 209.37
  Q 144.84 219.33 146.12 229.23
  Q 146.20 229.86 146.42 231.49
  Q 147.01 235.93 147.62 240.37
  C 147.98 243.04 147.79 246.07 148.18 248.96
  C 148.73 253.10 149.47 257.64 148.86 261.43
  Q 148.73 262.19 148.90 263.11
  Q 149.43 266.08 148.76 269.01
  C 148.39 270.63 149.36 272.40 149.38 274.12
  C 149.47 280.64 150.45 287.22 150.71 293.52
  Q 150.88 297.51 151.13 301.50
  Q 151.23 303.14 151.44 304.20
  Q 151.83 306.14 151.83 306.83
  Q 151.91 318.74 152.94 323.00
  C 153.36 324.73 153.29 325.71 153.47 327.23
  Q 154.08 332.49 154.50 337.75
  C 154.59 338.87 154.25 340.10 154.51 341.35
  C 155.16 344.53 155.36 347.57 155.56 350.79
  C 155.67 352.56 156.20 354.57 156.20 356.58
  Q 156.20 358.48 156.57 360.88
  Q 157.01 363.75 156.22 366.89
  C 148.61 364.55 141.53 361.01 131.11 356.15
  Q 128.26 354.82 122.76 350.50
  Q 124.48 342.61 123.87 340.00
  Q 122.54 334.34 122.48 330.25
  Q 122.15 309.66 121.37 303.50
  Q 120.65 297.76 120.15 292.00
  Q 120.12 291.72 119.86 291.65
  Q 119.56 291.58 119.55 291.27
  Q 119.17 283.25 118.55 275.23
  Q 117.73 264.63 117.09 254.00
  Q 117.04 253.11 116.73 250.23
  Q 115.67 240.49 114.86 230.75
  Q 114.55 226.95 114.46 225.99
  Q 113.46 214.80 112.40 203.61
  C 111.81 197.44 111.58 189.29 110.70 182.14
  C 110.04 176.76 109.78 170.71 110.82 165.01
  Q 110.91 164.52 110.78 164.04
  Q 110.32 162.33 110.75 160.17
  Z"
/>
<path fill="#ce5bdd" d="
  M 417.24 165.74
  L 418.15 165.97
  Q 418.67 166.10 418.71 166.64
  Q 419.37 175.33 418.97 184.02
  Q 418.73 189.41 418.74 196.50
  Q 418.75 201.97 418.32 209.00
  C 417.72 218.70 418.08 231.00 417.81 241.67
  Q 417.49 254.87 417.52 268.08
  Q 417.52 268.20 417.34 272.41
  C 417.24 274.62 417.88 276.92 417.47 279.07
  Q 417.37 279.57 417.47 280.07
  Q 417.78 281.54 417.55 283.02
  Q 417.47 283.50 417.56 283.97
  Q 417.67 284.50 417.62 285.25
  Q 417.11 293.91 416.71 305.59
  C 416.40 314.76 416.73 325.35 416.55 335.25
  Q 416.44 341.69 416.93 348.11
  C 417.08 350.20 416.95 352.31 416.97 354.48
  Q 416.98 355.11 416.59 356.96
  Q 416.06 359.50 418.56 361.16
  Q 405.98 366.50 392.70 369.50
  Q 392.70 368.89 392.38 368.61
  A 0.18 0.16 42.6 0 0 392.14 368.61
  Q 392.04 368.71 391.94 368.81
  A 0.35 0.34 55.5 0 1 391.38 368.70
  C 389.65 364.78 390.65 360.87 390.48 357.65
  Q 390.21 352.83 390.28 347.99
  Q 390.37 342.37 390.65 336.75
  C 390.70 335.74 390.23 334.62 390.36 333.75
  C 390.87 330.31 390.40 327.07 390.55 323.61
  C 390.65 321.30 390.22 319.06 390.34 316.68
  Q 390.39 315.66 390.37 314.00
  Q 390.28 304.88 390.23 295.75
  Q 390.22 294.23 390.58 292.73
  Q 390.74 292.06 390.37 291.52
  A 1.31 1.27 -63.2 0 1 390.14 290.78
  C 390.07 271.10 390.52 251.40 390.15 231.74
  Q 390.05 226.49 390.03 221.24
  Q 390.02 217.52 390.50 210.75
  Q 390.96 204.28 390.84 197.79
  Q 390.80 195.92 390.98 192.70
  Q 391.13 190.15 390.97 187.59
  C 390.83 185.10 391.28 182.65 391.12 180.25
  Q 390.75 174.64 390.89 170.39
  Q 404.32 168.78 417.24 165.74
  Z"
/>
<path fill="#3d58e4" d="
  M 144.29 168.95
  L 176.99 173.94
  Q 176.80 173.98 176.65 174.04
  Q 176.38 174.14 176.33 174.42
  Q 176.20 175.14 175.68 175.40
  A 0.67 0.66 77.3 0 0 175.31 176.00
  Q 175.27 184.85 175.74 193.36
  C 176.18 201.03 176.34 207.76 176.74 214.95
  C 176.86 217.13 177.46 220.27 177.36 223.04
  Q 177.34 223.49 177.55 223.88
  Q 177.80 224.35 177.86 225.00
  Q 179.47 243.79 179.88 260.15
  C 179.95 263.05 180.35 266.39 180.38 269.56
  C 180.41 272.07 181.25 274.56 181.15 277.25
  Q 181.06 279.78 181.42 281.97
  Q 181.76 284.07 181.69 286.21
  C 181.60 288.68 182.27 290.92 182.27 293.34
  Q 182.27 296.23 182.42 297.67
  Q 182.73 300.48 182.62 302.00
  C 182.51 303.51 183.13 304.52 183.18 305.67
  Q 184.65 336.35 186.30 367.02
  Q 186.33 367.49 186.63 367.85
  Q 187.03 368.33 186.85 368.94
  Q 186.74 369.35 186.84 369.77
  Q 187.14 371.03 186.67 372.31
  Q 186.62 372.45 186.75 372.52
  L 187.06 372.69
  Q 187.49 372.92 187.13 373.24
  L 185.41 374.77
  L 156.22 366.89
  Q 157.01 363.75 156.57 360.88
  Q 156.20 358.48 156.20 356.58
  C 156.20 354.57 155.67 352.56 155.56 350.79
  C 155.36 347.57 155.16 344.53 154.51 341.35
  C 154.25 340.10 154.59 338.87 154.50 337.75
  Q 154.08 332.49 153.47 327.23
  C 153.29 325.71 153.36 324.73 152.94 323.00
  Q 151.91 318.74 151.83 306.83
  Q 151.83 306.14 151.44 304.20
  Q 151.23 303.14 151.13 301.50
  Q 150.88 297.51 150.71 293.52
  C 150.45 287.22 149.47 280.64 149.38 274.12
  C 149.36 272.40 148.39 270.63 148.76 269.01
  Q 149.43 266.08 148.90 263.11
  Q 148.73 262.19 148.86 261.43
  C 149.47 257.64 148.73 253.10 148.18 248.96
  C 147.79 246.07 147.98 243.04 147.62 240.37
  Q 147.01 235.93 146.42 231.49
  Q 146.20 229.86 146.12 229.23
  Q 144.84 219.33 144.28 209.37
  Q 144.27 209.25 144.42 208.76
  Q 144.47 208.62 144.53 208.49
  Q 144.60 208.35 144.57 208.20
  Q 144.21 206.53 144.12 204.75
  Q 143.71 196.56 143.38 188.37
  C 143.23 184.74 142.54 178.71 142.88 173.75
  Q 142.92 173.30 142.68 172.92
  Q 141.97 171.78 142.65 170.69
  Q 142.90 170.29 143.36 170.18
  Q 144.19 169.98 144.29 168.95
  Z"
/>
<path fill="#b054ed" d="
  M 390.89 170.39
  Q 390.75 174.64 391.12 180.25
  C 391.28 182.65 390.83 185.10 390.97 187.59
  Q 391.13 190.15 390.98 192.70
  Q 390.80 195.92 390.84 197.79
  Q 390.96 204.28 390.50 210.75
  Q 390.02 217.52 390.03 221.24
  Q 390.05 226.49 390.15 231.74
  C 390.52 251.40 390.07 271.10 390.14 290.78
  A 1.31 1.27 -63.2 0 0 390.37 291.52
  Q 390.74 292.06 390.58 292.73
  Q 390.22 294.23 390.23 295.75
  Q 390.28 304.88 390.37 314.00
  Q 390.39 315.66 390.34 316.68
  C 390.22 319.06 390.65 321.30 390.55 323.61
  C 390.40 327.07 390.87 330.31 390.36 333.75
  C 390.23 334.62 390.70 335.74 390.65 336.75
  Q 390.37 342.37 390.28 347.99
  Q 390.21 352.83 390.48 357.65
  C 390.65 360.87 389.65 364.78 391.38 368.70
  A 0.35 0.34 55.5 0 0 391.94 368.81
  Q 392.04 368.71 392.14 368.61
  A 0.18 0.16 42.6 0 1 392.38 368.61
  Q 392.70 368.89 392.70 369.50
  Q 371.36 375.20 358.79 376.84
  Q 348.99 378.12 339.26 379.66
  L 337.25 334.98
  Q 336.92 327.55 336.85 320.12
  Q 336.78 312.77 336.71 305.40
  Q 336.65 299.68 336.06 291.63
  Q 335.34 281.95 335.22 272.25
  Q 335.21 271.34 334.74 270.36
  Q 334.52 269.90 334.63 269.40
  Q 335.44 265.81 335.04 262.14
  C 334.90 260.83 335.43 259.89 335.31 258.55
  Q 335.13 256.50 335.13 256.45
  Q 335.13 235.59 335.16 214.74
  C 335.16 211.93 335.20 208.50 335.26 206.16
  Q 335.68 191.43 336.20 176.46
  Q 350.56 175.18 365.32 173.82
  C 374.01 173.02 382.40 171.71 390.89 170.39
  Z"
/>
<path fill="#5754ef" d="
  M 176.99 173.94
  C 188.04 174.95 199.20 176.29 210.07 176.88
  Q 218.14 177.32 226.19 177.75
  Q 226.35 178.86 225.22 178.91
  A 0.75 0.74 3.9 0 0 224.52 179.51
  Q 224.39 180.23 224.73 180.97
  Q 224.93 181.41 224.83 181.88
  Q 224.24 184.50 224.34 187.13
  C 224.55 192.23 224.41 196.58 224.73 201.31
  C 225.22 208.42 225.19 215.23 226.04 222.18
  C 226.20 223.47 225.98 225.08 226.23 226.45
  Q 226.64 228.68 226.64 229.59
  C 226.58 238.43 226.56 247.36 227.71 256.15
  C 228.65 263.35 228.81 271.44 228.89 278.08
  C 228.91 279.90 229.30 281.82 229.35 283.75
  C 229.62 293.90 230.53 304.09 230.69 314.16
  Q 230.78 319.59 230.88 325.01
  C 231.02 332.61 232.34 340.31 232.40 347.91
  Q 232.45 355.99 232.54 358.09
  Q 232.85 365.91 232.93 373.75
  Q 232.96 376.62 234.17 380.44
  Q 234.32 380.93 233.81 380.88
  Q 232.82 380.80 233.04 381.43
  Q 226.27 380.80 219.51 380.17
  C 208.03 379.10 196.74 376.85 185.41 374.77
  L 187.13 373.24
  Q 187.49 372.92 187.06 372.69
  L 186.75 372.52
  Q 186.62 372.45 186.67 372.31
  Q 187.14 371.03 186.84 369.77
  Q 186.74 369.35 186.85 368.94
  Q 187.03 368.33 186.63 367.85
  Q 186.33 367.49 186.30 367.02
  Q 184.65 336.35 183.18 305.67
  C 183.13 304.52 182.51 303.51 182.62 302.00
  Q 182.73 300.48 182.42 297.67
  Q 182.27 296.23 182.27 293.34
  C 182.27 290.92 181.60 288.68 181.69 286.21
  Q 181.76 284.07 181.42 281.97
  Q 181.06 279.78 181.15 277.25
  C 181.25 274.56 180.41 272.07 180.38 269.56
  C 180.35 266.39 179.95 263.05 179.88 260.15
  Q 179.47 243.79 177.86 225.00
  Q 177.80 224.35 177.55 223.88
  Q 177.34 223.49 177.36 223.04
  C 177.46 220.27 176.86 217.13 176.74 214.95
  C 176.34 207.76 176.18 201.03 175.74 193.36
  Q 175.27 184.85 175.31 176.00
  A 0.67 0.66 77.3 0 1 175.68 175.40
  Q 176.20 175.14 176.33 174.42
  Q 176.38 174.14 176.65 174.04
  Q 176.80 173.98 176.99 173.94
  Z"
/>
<path fill="#9752f4" d="
  M 336.20 176.46
  Q 335.68 191.43 335.26 206.16
  C 335.20 208.50 335.16 211.93 335.16 214.74
  Q 335.13 235.59 335.13 256.45
  Q 335.13 256.50 335.31 258.55
  C 335.43 259.89 334.90 260.83 335.04 262.14
  Q 335.44 265.81 334.63 269.40
  Q 334.52 269.90 334.74 270.36
  Q 335.21 271.34 335.22 272.25
  Q 335.34 281.95 336.06 291.63
  Q 336.65 299.68 336.71 305.40
  Q 336.78 312.77 336.85 320.12
  Q 336.92 327.55 337.25 334.98
  L 339.26 379.66
  Q 315.20 382.28 291.04 383.37
  L 290.89 380.80
  Q 290.87 380.41 290.48 380.39
  Q 289.97 380.37 289.91 379.75
  Q 289.65 377.01 289.60 374.26
  Q 289.57 372.46 289.30 368.78
  C 288.83 362.35 288.83 354.76 288.82 350.12
  Q 288.81 341.94 288.71 333.75
  C 288.66 330.32 288.95 327.43 288.63 324.76
  C 288.21 321.31 288.55 317.67 288.23 314.14
  C 288.04 312.03 288.41 309.80 288.17 307.55
  Q 287.97 305.62 287.97 304.42
  C 287.98 300.87 287.69 297.30 287.92 293.78
  Q 287.96 293.30 288.30 292.98
  Q 288.52 292.77 288.64 292.50
  Q 288.76 292.24 288.50 292.11
  Q 288.37 292.05 288.27 291.97
  Q 287.54 291.39 287.54 291.25
  L 286.85 273.25
  A 0.55 0.55 0.0 0 1 287.90 273.02
  L 288.08 273.45
  Q 288.18 273.71 288.03 273.94
  Q 287.78 274.30 287.91 274.56
  Q 288.29 275.36 288.29 274.38
  C 288.27 268.10 287.90 261.79 287.93 255.54
  Q 287.98 246.52 287.45 237.51
  Q 287.45 237.45 287.54 236.52
  Q 287.57 236.21 287.55 235.75
  Q 287.00 221.75 286.45 207.74
  C 286.36 205.67 286.79 202.48 286.19 199.74
  A 1.71 1.71 0.0 0 1 286.26 198.80
  Q 286.55 198.02 286.41 197.49
  Q 285.76 195.15 286.13 191.51
  Q 286.50 187.81 285.59 180.11
  A 0.39 0.38 9.1 0 0 285.35 179.79
  Q 285.07 179.69 285.01 179.36
  Q 284.99 179.25 285.09 179.19
  Q 285.13 179.16 285.18 179.15
  Q 285.46 179.06 285.21 179.03
  L 280.96 178.62
  Q 308.29 178.39 336.20 176.46
  Z"
/>
<path fill="#7052f5" d="
  M 226.19 177.75
  C 232.68 177.98 239.32 178.42 245.60 178.46
  Q 263.28 178.59 280.96 178.62
  L 285.21 179.03
  Q 285.46 179.06 285.18 179.15
  Q 285.13 179.16 285.09 179.19
  Q 284.99 179.25 285.01 179.36
  Q 285.07 179.69 285.35 179.79
  A 0.39 0.38 9.1 0 1 285.59 180.11
  Q 286.50 187.81 286.13 191.51
  Q 285.76 195.15 286.41 197.49
  Q 286.55 198.02 286.26 198.80
  A 1.71 1.71 0.0 0 0 286.19 199.74
  C 286.79 202.48 286.36 205.67 286.45 207.74
  Q 287.00 221.75 287.55 235.75
  Q 287.57 236.21 287.54 236.52
  Q 287.45 237.45 287.45 237.51
  Q 287.98 246.52 287.93 255.54
  C 287.90 261.79 288.27 268.10 288.29 274.38
  Q 288.29 275.36 287.91 274.56
  Q 287.78 274.30 288.03 273.94
  Q 288.18 273.71 288.08 273.45
  L 287.90 273.02
  A 0.55 0.55 0.0 0 0 286.85 273.25
  L 287.54 291.25
  Q 287.54 291.39 288.27 291.97
  Q 288.37 292.05 288.50 292.11
  Q 288.76 292.24 288.64 292.50
  Q 288.52 292.77 288.30 292.98
  Q 287.96 293.30 287.92 293.78
  C 287.69 297.30 287.98 300.87 287.97 304.42
  Q 287.97 305.62 288.17 307.55
  C 288.41 309.80 288.04 312.03 288.23 314.14
  C 288.55 317.67 288.21 321.31 288.63 324.76
  C 288.95 327.43 288.66 330.32 288.71 333.75
  Q 288.81 341.94 288.82 350.12
  C 288.83 354.76 288.83 362.35 289.30 368.78
  Q 289.57 372.46 289.60 374.26
  Q 289.65 377.01 289.91 379.75
  Q 289.97 380.37 290.48 380.39
  Q 290.87 380.41 290.89 380.80
  L 291.04 383.37
  Q 261.95 384.16 233.04 381.43
  Q 232.82 380.80 233.81 380.88
  Q 234.32 380.93 234.17 380.44
  Q 232.96 376.62 232.93 373.75
  Q 232.85 365.91 232.54 358.09
  Q 232.45 355.99 232.40 347.91
  C 232.34 340.31 231.02 332.61 230.88 325.01
  Q 230.78 319.59 230.69 314.16
  C 230.53 304.09 229.62 293.90 229.35 283.75
  C 229.30 281.82 228.91 279.90 228.89 278.08
  C 228.81 271.44 228.65 263.35 227.71 256.15
  C 226.56 247.36 226.58 238.43 226.64 229.59
  Q 226.64 228.68 226.23 226.45
  C 225.98 225.08 226.20 223.47 226.04 222.18
  C 225.19 215.23 225.22 208.42 224.73 201.31
  C 224.41 196.58 224.55 192.23 224.34 187.13
  Q 224.24 184.50 224.83 181.88
  Q 224.93 181.41 224.73 180.97
  Q 224.39 180.23 224.52 179.51
  A 0.75 0.74 3.9 0 1 225.22 178.91
  Q 226.35 178.86 226.19 177.75
  Z"
/>
</svg>
